<?xml version="1.0" encoding="UTF-8"?>
<svg width="41px" height="41px" viewBox="0 0 41 41" version="1.1" xmlns="http://www.w3.org/2000/svg" xmlns:xlink="http://www.w3.org/1999/xlink">
    <!-- Generator: Sketch 61.2 (89653) - https://sketch.com -->
    <title>Group 33</title>
    <desc>Created with Sketch.</desc>
    <defs>
        <circle id="path-1" cx="20.5" cy="20.5" r="20.5"></circle>
    </defs>
    <g id="Page-1" stroke="none" stroke-width="1" fill="none" fill-rule="evenodd">
        <g id="Desktop-HD-Copy-2" transform="translate(-808.000000, -31.000000)">
            <g id="header">
                <g id="Group-12" transform="translate(808.000000, 31.000000)">
                    <g id="Group-33">
                        <mask id="mask-2" fill="white">
                            <use xlink:href="#path-1"></use>
                        </mask>
                        <use id="Oval" fill="#F9FBFC" xlink:href="#path-1"></use>
                        <g id="avatar" mask="url(#mask-2)">
                            <g transform="translate(7.000000, 6.000000)">
                                <path d="M14.56876,28.1424322 C16.9211094,28.5205387 21.7307692,31.5993288 24.6153846,21.5993288 C25.2589285,19.3683768 25.7270945,9.86247087 25.3846154,7.5608673 C24.7208225,3.09990037 21.0924109,0 15.2302811,0 C9.78286881,0 9.42844093,0.559226249 8.73144852,0.932043748 C7.79022664,1.43549828 5.76923077,3.58871985 5.76923077,6.33789749 C5.76923077,6.87288625 7.6859599,4.30455775 7.6859599,5.40585374 C7.6859599,13.6078387 16.847502,10.2744332 17.7923499,13.9806562 C18.8378385,18.0816487 15.2307407,16.0551036 13.6103954,22.5554587 C12.913403,25.3515899 12.854278,27.8668538 14.56876,28.1424322 Z" id="Oval" stroke="none" fill="#AFB1DF" fill-rule="evenodd"></path>
                                <path d="M5.38461538,21.5993288 L9.02624193,23.6576395 C9.50911725,23.930569 9.80769231,24.4422967 9.80769231,24.9969669 L9.80769231,27.0506924 C9.80769231,27.9003612 9.11889962,28.5891539 8.26923077,28.5891539 C8.1240893,28.5891539 7.97967807,28.568615 7.84029201,28.5281481 L5.29152651,27.7881839 C4.48818788,27.5549566 4.01841275,26.7225887 4.23394998,25.9143241 L5.38461538,21.5993288 L5.38461538,21.5993288 Z" id="Rectangle" stroke="none" fill="#AFB1DF" fill-rule="evenodd"></path>
                                <path d="M13.2617188,2.18860883 C5.19562468,2.68148222 6.96700866,5.43566048 4.24515091,12.0017784 C4.05466277,12.4613055 2.38014429,13.8907741 2.5068333,14.9827334 C2.71472651,16.7746088 3.71111989,16.2738519 4.57013077,18.2829401 C6.34100234,22.4247236 4.60569649,22.4328104 9.45781247,24.2700542" id="Path-4" stroke="#172B4D" stroke-width="0.961538462" fill="none" stroke-linecap="round"></path>
                                <path d="M12.8846154,2.17625192 C13.7358258,2.1899996 14.7544585,2.34109399 15.5769231,2.5608673 C23.7246328,4.7380422 24.7503809,12.2450837 21.0952226,19.0249328 C17.1153846,26.4070211 18.9395725,23.2193146 18.9031601,23.1377904" id="Path-5" stroke="#172B4D" stroke-width="0.961538462" fill="none"></path>
                                <path d="" id="Path-6" stroke="#979797" stroke-width="0.5" fill="none"></path>
                                <rect id="Rectangle" stroke="none" fill="#FFCC4A" fill-rule="evenodd" x="8.84615385" y="25.6377904" width="8.07692308" height="2.5"></rect>
                                <polygon id="Path-8" stroke="none" fill="#FFCC4A" fill-rule="evenodd" points="0 34.8685596 8.84615385 28.1377904 16.9230769 28.1377904 26.7307692 34.6762519"></polygon>
                                <path d="M13.8553478,13.2479479 C13.9782305,10.8475267 17.2930088,10.7134327 18.3402229,12.7848943 C20.0349045,16.1370911 17.3355925,21.3102667 14.0758225,17.2629682" id="Path-7" stroke="#172B4D" stroke-width="0.961538462" fill="none" stroke-linecap="round"></path>
                                <circle id="Oval" stroke="none" fill="#D1D3ED" fill-rule="evenodd" cx="16.4423077" cy="14.9647135" r="1.44230769"></circle>
                                <rect id="Rectangle" stroke="none" fill="#172B4D" fill-rule="evenodd" x="7.11538462" y="27.5608673" width="11.1538462" height="1" rx="0.480769231"></rect>
                                <g id="Group-20" stroke="none" stroke-width="1" fill="none" fill-rule="evenodd" transform="translate(6.136540, 7.907021)">
                                    <path d="M1,10.3710966 C1.76014931,10.6530176 2.22617674,10.9656493 3.5,10.3143544" id="Path-9" stroke="#172B4D" stroke-width="0.769230769" stroke-linecap="round" transform="translate(2.250000, 10.506662) rotate(-15.000000) translate(-2.250000, -10.506662) "></path>
                                    <path d="M2.01810076,1.28609264 C2.50014166,1.09536421 2.89303927,1 3.1967936,1 C3.35688694,1 3.5213499,1.02030468 3.81345622,1.08253652 C3.89965332,1.1009004 4.14877345,1.12825101 4.23473904,1.1687457 C4.48049748,1.28451192 4.90289185,1.58758142 5.50192215,2.07795419 C5.55375886,2.1203954 5.56333496,2.19597507 5.52371668,2.25 C5.48143531,2.30765641 5.40778501,2.33297886 5.33899205,2.31349796 C4.23302601,2.00057929 3.47195131,1.88325946 3.05576796,1.96153846 C2.74983656,2.01908042 2.40007424,2.19768616 2.00648101,2.49735568 C1.84928566,2.61704996 1.62482356,2.58663968 1.50513604,2.42943918 C1.46542118,2.37727671 1.44080396,2.31520378 1.43397309,2.25 C1.39039637,1.8340404 1.62920273,1.43997457 2.01810076,1.28609264 Z" id="Rectangle" fill="#172B4D" transform="translate(3.478845, 1.961538) rotate(-345.000000) translate(-3.478845, -1.961538) "></path>
                                </g>
                                <path d="M7.11538462,12.2952195 C7.66822047,12.7071923 8.6889677,13.1279928 9.61538462,12.1762519" id="Path-9" stroke="#172B4D" stroke-width="0.769230769" fill="none" stroke-linecap="round" transform="translate(8.365385, 12.464713) rotate(-180.000000) translate(-8.365385, -12.464713) "></path>
                            </g>
                        </g>
                    </g>
                </g>
            </g>
        </g>
    </g>
</svg>