<?xml version="1.0" encoding="UTF-8"?>
<svg width="14px" height="16px" viewBox="0 0 14 16" version="1.1" xmlns="http://www.w3.org/2000/svg" xmlns:xlink="http://www.w3.org/1999/xlink">
    <!-- Generator: Sketch 61.2 (89653) - https://sketch.com -->
    <title>l</title>
    <desc>Created with Sketch.</desc>
    <g id="Page-1" stroke="none" stroke-width="1" fill="none" fill-rule="evenodd">
        <g id="Desktop-HD-Copy-2" transform="translate(-1074.000000, -1139.000000)" fill="#FEEB4B" fill-rule="nonzero">
            <g id="Group-4" transform="translate(899.000000, 0.000000)">
                <g id="Group-16" transform="translate(40.000000, 852.000000)">
                    <g id="Group-19">
                        <g id="Group-18" transform="translate(0.000000, 262.000000)">
                            <g id="Group-13" transform="translate(135.000000, 22.000000)">
                                <path d="M11.7187221,18.8749955 C12.4950874,18.8749955 13.1249687,18.2451142 13.1249687,17.4687489 L13.1249687,11.8437623 C13.1249687,11.067397 12.4950874,10.4375156 11.7187221,10.4375156 L11.0155987,10.4375156 L11.0155987,8.32814568 C11.0155987,5.87307913 9.0175509,3.87503129 6.56248435,3.87503129 C4.1074178,3.87503129 2.10936997,5.87307913 2.10936997,8.32814568 L2.10936997,10.4375156 L1.40624665,10.4375156 C0.629881311,10.4375156 0,11.067397 0,11.8437623 L0,17.4687489 C0,18.2451142 0.629881311,18.8749955 1.40624665,18.8749955 L11.7187221,18.8749955 Z M8.67185432,10.4375156 L4.45311438,10.4375156 L4.45311438,8.32814568 C4.45311438,7.16505679 5.39939547,6.2187757 6.56248435,6.2187757 C7.72557324,6.2187757 8.67185432,7.16505679 8.67185432,8.32814568 L8.67185432,10.4375156 Z" id="l"></path>
                            </g>
                        </g>
                    </g>
                </g>
            </g>
        </g>
    </g>
</svg>