<?xml version="1.0" encoding="UTF-8"?>
<svg width="253px" height="59px" viewBox="0 0 253 59" version="1.1" xmlns="http://www.w3.org/2000/svg" xmlns:xlink="http://www.w3.org/1999/xlink">
    <!-- Generator: Sketch 61.2 (89653) - https://sketch.com -->
    <title>Group</title>
    <desc>Created with Sketch.</desc>
    <defs>
        <linearGradient x1="68.8519544%" y1="-9.98431466%" x2="31.1480456%" y2="91.5660721%" id="linearGradient-1">
            <stop stop-color="#1518DF" offset="0%"></stop>
            <stop stop-color="#C9FFEE" offset="100%"></stop>
        </linearGradient>
    </defs>
    <g id="Page-1" stroke="none" stroke-width="1" fill="none" fill-rule="evenodd">
        <g id="splash" transform="translate(-593.000000, -483.000000)">
            <g id="Group" transform="translate(593.000000, 483.000000)">
                <path d="M16.7044877,46.7326171 C21.7645286,46.7326171 25.9012044,44.59041 28.0434115,41.3770994 L28.3019537,41.3770994 L27.2677848,46.1416634 L39.6039428,46.1416634 L45.0702644,20.3613091 C45.2549374,19.5118132 45.4026758,18.1452328 45.4026758,17.0741292 C45.4026758,9.87188124 38.4959047,4.95957877 28.3019537,4.95957877 C18.2188065,4.95957877 10.9057547,10.1304235 9.3914359,18.2560366 L21.0258365,18.2560366 C21.8014632,15.7814181 24.0544741,14.3409685 27.3785886,14.3409685 C30.8135068,14.3409685 32.9557139,15.8552873 32.9557139,18.1821674 C32.9557139,18.5515134 32.9557139,18.8839249 32.8079755,19.5118132 L32.3278256,21.8756279 L22.8356321,22.1711047 C11.6444468,22.5035162 4.81154487,27.5635571 4.81154487,35.799974 C4.81154487,42.1157915 9.98238958,46.7326171 16.7044877,46.7326171 Z M22.3554823,37.9052465 C19.2529755,37.9052465 17.1107684,36.3539931 17.1107684,33.9901783 C17.1107684,31.2939522 19.5853869,29.5210911 23.4635204,29.3733527 L30.7765722,29.1517451 L30.1117493,32.1434481 C29.4099918,35.4675626 26.0858774,37.9052465 22.3554823,37.9052465 Z M67.267962,47.1019631 C77.7573899,47.1019631 85.7721992,40.4537342 87.1387796,30.8138023 L74.9872945,30.8138023 C74.0269948,34.581132 71.4046378,36.8710775 67.7850465,36.8710775 C64.091586,36.8710775 61.6539021,33.8793745 61.6539021,29.2256143 C61.6539021,20.9153282 65.3473626,15.1904644 70.7028803,15.1904644 C74.4332754,15.1904644 76.6862863,17.7020175 76.7232209,21.3216088 L88.874706,21.3216088 L88.8892647,21.2226234 C88.9116406,21.0388078 88.9116406,20.796001 88.9116406,19.7334208 C88.9116406,11.4600693 81.7463272,4.95957877 71.2568994,4.95957877 C57.6280301,4.95957877 48.9483979,14.7472491 48.9483979,29.7426988 C48.9483979,40.195192 55.9290383,47.1019631 67.267962,47.1019631 Z M133.82412,46.1416634 L142.392949,5.9198785 L129.65051,5.9198785 L121.081682,46.1416634 L133.82412,46.1416634 Z M166.954461,46.1416634 L188.819747,5.88294389 L175.227813,5.88294389 L161.968289,34.8766089 L161.709747,34.8766089 L160.490905,5.88294389 L147.748466,5.88294389 L152.217554,46.1416634 L166.954461,46.1416634 Z M205.44032,47.0650285 C215.671205,47.0650285 223.16893,41.414034 225.274203,33.177617 L213.38126,33.177617 C212.457895,35.984647 209.687799,37.8683119 205.994339,37.8683119 C201.303644,37.8683119 198.459679,34.581132 198.459679,30.0381756 C198.459679,29.631895 198.496614,29.2256143 198.570483,28.8193336 L226.308371,28.8193336 C226.751587,26.8617996 226.93626,24.3133118 226.93626,22.2449739 C226.93626,11.7555461 219.734012,4.95957877 209.13378,4.95957877 C195.874257,4.95957877 186.973017,15.1904644 186.973017,28.8193336 C186.973017,40.1213228 194.027527,47.0650285 205.44032,47.0650285 Z M215.191055,21.5062818 L199.789325,21.5062818 C200.860429,17.1479984 204.295347,14.0454916 208.579761,14.0454916 C212.790306,14.0454916 215.264925,16.8525216 215.264925,20.3613091 C215.264925,20.7675897 215.264925,21.2846742 215.191055,21.5062818 Z" id="active" fill-opacity="0.133386145" fill="#2940FE" fill-rule="nonzero"></path>
                <path d="M13.6788049,42.1940928 C18.7388457,42.1940928 22.8755215,40.0518857 25.0177286,36.8385751 L25.2762708,36.8385751 L24.2421019,41.6031391 L36.57826,41.6031391 L42.0445815,15.8227848 C42.2292546,14.9732889 42.376993,13.6067085 42.376993,12.535605 C42.376993,5.33335697 35.4702218,0.421054498 25.2762708,0.421054498 C15.1931237,0.421054498 7.88007186,5.59189921 6.36575305,13.7175123 L18.0001536,13.7175123 C18.7757804,11.2428938 21.0287913,9.80244418 24.3529057,9.80244418 C27.787824,9.80244418 29.9300311,11.316763 29.9300311,13.6436431 C29.9300311,14.0129892 29.9300311,14.3454006 29.7822927,14.9732889 L29.3021428,17.3371036 L19.8099493,17.6325805 C8.61876396,17.9649919 1.78586202,23.0250328 1.78586202,31.2614497 C1.78586202,37.5772672 6.95670673,42.1940928 13.6788049,42.1940928 Z M19.3297994,33.3667222 C16.2272926,33.3667222 14.0850855,31.8154688 14.0850855,29.4516541 C14.0850855,26.7554279 16.5597041,24.9825669 20.4378376,24.8348284 L27.7508894,24.6132208 L27.0860665,27.6049238 C26.384309,30.9290383 23.0601945,33.3667222 19.3297994,33.3667222 Z M64.2422792,42.5634389 C74.731707,42.5634389 82.7465163,35.91521 84.1130967,26.275278 L71.9616116,26.275278 C71.0013119,30.0426078 68.378955,32.3325533 64.7593637,32.3325533 C61.0659032,32.3325533 58.6282192,29.3408503 58.6282192,24.68709 C58.6282192,16.3768039 62.3216797,10.6519401 67.6771975,10.6519401 C71.4075926,10.6519401 73.6606035,13.1634932 73.6975381,16.7830845 L85.8490232,16.7830845 L85.8635818,16.6840991 C85.8859578,16.5002835 85.8859578,16.2574767 85.8859578,15.1948965 C85.8859578,6.92154499 78.7206444,0.421054498 68.2312165,0.421054498 C54.6023473,0.421054498 45.9227151,10.2087248 45.9227151,25.2041745 C45.9227151,35.6566677 52.9033554,42.5634389 64.2422792,42.5634389 Z M130.798438,41.6031391 L139.367266,1.38135423 L126.624827,1.38135423 L118.055999,41.6031391 L130.798438,41.6031391 Z M163.928778,41.6031391 L185.794064,1.34441962 L172.20213,1.34441962 L158.942607,30.3380846 L158.684064,30.3380846 L157.465222,1.34441962 L144.722784,1.34441962 L149.191871,41.6031391 L163.928778,41.6031391 Z M202.414637,42.5265043 C212.645522,42.5265043 220.143247,36.8755097 222.24852,28.6390928 L210.355577,28.6390928 C209.432212,31.4461228 206.662116,33.3297876 202.968656,33.3297876 C198.277961,33.3297876 195.433996,30.0426078 195.433996,25.4996513 C195.433996,25.0933707 195.470931,24.68709 195.5448,24.2808094 L223.282689,24.2808094 C223.725904,22.3232753 223.910577,19.7747876 223.910577,17.7064497 C223.910577,7.21702183 216.708329,0.421054498 206.108097,0.421054498 C192.848574,0.421054498 183.947334,10.6519401 183.947334,24.2808094 C183.947334,35.5827985 191.001844,42.5265043 202.414637,42.5265043 Z M212.165372,16.9677576 L196.763642,16.9677576 C197.834746,12.6094742 201.269664,9.50696734 205.554078,9.50696734 C209.764623,9.50696734 212.239242,12.3139973 212.239242,15.8227848 C212.239242,16.2290655 212.239242,16.7461499 212.165372,16.9677576 Z" id="active" fill="#E6F5FF" fill-rule="nonzero"></path>
                <path d="M67.0965855,3.44673734 C77.5860133,3.44673734 84.7513267,9.94722784 84.7513267,18.2205794 C84.7513267,19.2831595 84.7513267,19.5259663 84.7289507,19.709782 L84.7289507,19.709782 L84.7143921,19.8087674 L72.562907,19.8087674 C72.5259724,16.1891761 70.2729615,13.6776229 66.5425664,13.6776229 C61.1870487,13.6776229 57.4935882,19.4024867 57.4935882,27.7127729 C57.4935882,32.3665331 59.9312721,35.3582361 63.6247326,35.3582361 C67.2443239,35.3582361 69.8666808,33.0682906 70.8269806,29.3009609 L70.8269806,29.3009609 L82.9784656,29.3009609 C81.6118853,38.9408928 73.597076,45.5891217 63.1076481,45.5891217 C51.7687244,45.5891217 44.788084,38.6823506 44.788084,28.2298573 C44.788084,13.2344077 53.4677162,3.44673734 67.0965855,3.44673734 Z M204.973466,3.44673734 C215.573698,3.44673734 222.775946,10.2427047 222.775946,20.7321325 C222.775946,22.8004704 222.591273,25.3489581 222.148058,27.3064922 L222.148058,27.3064922 L194.410169,27.3064922 C194.3363,27.7127729 194.299365,28.1190535 194.299365,28.5253342 C194.299365,33.0682906 197.14333,36.3554705 201.834025,36.3554705 C205.527485,36.3554705 208.297581,34.4718056 209.220946,31.6647756 L209.220946,31.6647756 L221.113889,31.6647756 C219.008616,39.9011925 211.510891,45.5521871 201.280006,45.5521871 C189.867213,45.5521871 182.812703,38.6084814 182.812703,27.3064922 C182.812703,13.6776229 191.713943,3.44673734 204.973466,3.44673734 Z M24.1416398,3.44673734 C34.3355908,3.44673734 41.2423619,8.35903982 41.2423619,15.5612878 C41.2423619,16.6323914 41.0946235,17.9989717 40.9099505,18.8484677 L40.9099505,18.8484677 L35.4436289,44.628822 L23.1074708,44.628822 L24.1416398,39.8642579 L23.8830975,39.8642579 C21.7408904,43.0775686 17.6042147,45.2197757 12.5441738,45.2197757 C5.82207567,45.2197757 0.651230957,40.60295 0.651230957,34.2871326 C0.651230957,26.0507156 7.48413289,20.9906748 18.6753182,20.6582633 L18.6753182,20.6582633 L28.1675117,20.3627865 L28.6476616,17.9989717 C28.7625693,17.5106142 28.7881043,17.2010019 28.7937787,16.9137327 L28.7954,16.669326 C28.7954,14.3424458 26.6531929,12.828127 23.2182747,12.828127 C19.8941602,12.828127 17.6411493,14.2685766 16.8655226,16.7431952 L16.8655226,16.7431952 L5.23112198,16.7431952 C6.74544079,8.61758205 14.0584926,3.44673734 24.1416398,3.44673734 Z M135.787231,15.8847373 L129.663806,44.628822 L116.921368,44.628822 L123.044231,15.8847373 L135.787231,15.8847373 Z M156.330591,4.37010247 L157.549433,33.3637674 L157.807976,33.3637674 L171.067499,4.37010247 L184.659433,4.37010247 L162.794147,44.628822 L148.05724,44.628822 L143.588153,4.37010247 L156.330591,4.37010247 Z M26.6162583,27.6389037 L19.3032065,27.8605113 C15.425073,28.0082497 12.9504544,29.7811108 12.9504544,32.4773369 C12.9504544,34.8411517 15.0926615,36.3924051 18.1951684,36.3924051 C21.9255635,36.3924051 25.2496779,33.9547211 25.9514354,30.6306067 L25.9514354,30.6306067 L26.6162583,27.6389037 Z M204.419447,12.5326502 C200.135033,12.5326502 196.700115,15.635157 195.629011,19.9934404 L195.629011,19.9934404 L211.030741,19.9934404 C211.104611,19.7718328 211.104611,19.2547483 211.104611,18.8484677 C211.104611,15.3396802 208.629992,12.5326502 204.419447,12.5326502 Z M138.232635,4.40703708 L136.431231,12.8587373 L123.689231,12.8587373 L125.490196,4.40703708 L138.232635,4.40703708 Z" id="Combined-Shape" fill="#111111" fill-rule="nonzero"></path>
                <polygon id="Path-2" fill="url(#linearGradient-1)" points="95.9832675 3.78210356 116.980463 3.78210356 109.22063 18.1540971 116.980463 18.1540971 109.22063 30.4729487 116.980463 30.4729487 95.9832675 46.8980841 101.004336 27.7354261 90.5057382 27.7354261 97.8091105 12.6790519 90.5057382 12.6790519"></polygon>
                <polygon id="Rectangle" fill="#1518DF" points="118.491673 52.1930291 117 56 0.491673463 54.4622912"></polygon>
                <g id="Group-2" transform="translate(234.225673, 3.782104)" stroke="#313FB0" stroke-width="11.1411694">
                    <circle id="Oval" cx="9.79250152" cy="8.61974685" r="3.04916218"></circle>
                    <circle id="Oval" cx="8.61974685" cy="20.9336709" r="3.04916218"></circle>
                </g>
                <circle id="Oval" stroke="#333333" stroke-width="0.94552589" cx="228.174308" cy="6.80778641" r="2.5529199"></circle>
                <text id="POINT-OF-SALE" font-family="SFProText-SemiboldItalic, SF Pro Text" font-size="10.58989" font-style="italic" font-weight="500" letter-spacing="1.66412559" fill="#1518DF">
                    <tspan x="121.153252" y="57.6545048">POINT OF SALE</tspan>
                </text>
            </g>
        </g>
    </g>
</svg>